<svg width="24" height="24" viewBox="0 0 24 24" fill="none" xmlns="http://www.w3.org/2000/svg">
<path d="M15.103 3.10138L15.8101 2.39427V2.39427L15.103 3.10138ZM18.4971 6.49549L17.79 7.2026L18.4971 6.49549ZM9.69294 16.7055C10.0835 17.0961 10.7166 17.0961 11.1072 16.7055C11.4977 16.315 11.4977 15.6819 11.1072 15.2913L9.69294 16.7055ZM8.40005 13.9984L7.69294 13.2913C7.50541 13.4789 7.40005 13.7332 7.40005 13.9984C7.40005 14.2637 7.50541 14.518 7.69294 14.7055L8.40005 13.9984ZM11.1072 12.7055C11.4977 12.315 11.4977 11.6819 11.1072 11.2913C10.7166 10.9008 10.0835 10.9008 9.69294 11.2913L11.1072 12.7055ZM14.3072 11.2913C13.9166 10.9008 13.2835 10.9008 12.8929 11.2913C12.5024 11.6819 12.5024 12.315 12.8929 12.7055L14.3072 11.2913ZM15.6 13.9984L16.3072 14.7055C16.4947 14.518 16.6 14.2637 16.6 13.9984C16.6 13.7332 16.4947 13.4789 16.3072 13.2913L15.6 13.9984ZM12.8929 15.2913C12.5024 15.6819 12.5024 16.315 12.8929 16.7055C13.2835 17.0961 13.9166 17.0961 14.3072 16.7055L12.8929 15.2913ZM16.8001 20.5984H7.20005V22.5984H16.8001V20.5984ZM5.80005 19.1984V4.79844H3.80005V19.1984H5.80005ZM7.20005 3.39844H13.4059V1.39844H7.20005V3.39844ZM18.2001 8.19255V19.1984H20.2001V8.19255H18.2001ZM13.4059 3.39844C13.7772 3.39844 14.1333 3.54594 14.3959 3.80849L15.8101 2.39427C15.1725 1.75665 14.3077 1.39844 13.4059 1.39844V3.39844ZM7.20005 20.5984C6.42685 20.5984 5.80005 19.9716 5.80005 19.1984H3.80005C3.80005 21.0762 5.32228 22.5984 7.20005 22.5984V20.5984ZM16.8001 22.5984C18.6778 22.5984 20.2001 21.0762 20.2001 19.1984H18.2001C18.2001 19.9716 17.5732 20.5984 16.8001 20.5984V22.5984ZM17.79 7.2026C18.0526 7.46515 18.2001 7.82125 18.2001 8.19255H20.2001C20.2001 7.29081 19.8418 6.42601 19.2042 5.78839L17.79 7.2026ZM5.80005 4.79844C5.80005 4.02524 6.42685 3.39844 7.20005 3.39844V1.39844C5.32228 1.39844 3.80005 2.92067 3.80005 4.79844H5.80005ZM12.2 2.39844V7.19844H14.2001V2.39844H12.2ZM14.4001 9.39844H19.2001V7.39844H14.4001V9.39844ZM12.2 7.19844C12.2 8.41346 13.185 9.39844 14.4001 9.39844V7.39844C14.2896 7.39844 14.2001 7.30889 14.2001 7.19844H12.2ZM14.3959 3.80849L17.79 7.2026L19.2042 5.78839L15.8101 2.39427L14.3959 3.80849ZM11.1072 15.2913L9.10716 13.2913L7.69294 14.7055L9.69294 16.7055L11.1072 15.2913ZM9.10716 14.7055L11.1072 12.7055L9.69294 11.2913L7.69294 13.2913L9.10716 14.7055ZM12.8929 12.7055L14.8929 14.7055L16.3072 13.2913L14.3072 11.2913L12.8929 12.7055ZM14.8929 13.2913L12.8929 15.2913L14.3072 16.7055L16.3072 14.7055L14.8929 13.2913Z" fill="#8C8F91"/>
</svg>
